<?xml version="1.0" standalone="no"?>
<!DOCTYPE svg PUBLIC "-//W3C//DTD SVG 20010904//EN"
 "http://www.w3.org/TR/2001/REC-SVG-20010904/DTD/svg10.dtd">
<svg version="1.0" xmlns="http://www.w3.org/2000/svg"
 width="516.000000pt" height="109.000000pt" viewBox="0 0 516.000000 109.000000"
 preserveAspectRatio="xMidYMid meet">

<g transform="translate(0.000000,109.000000) scale(0.100000,-0.100000)"
fill="#000000" stroke="none">
<path d="M451 1079 c-66 -27 -415 -237 -430 -259 -14 -21 -16 -59 -16 -275 0
-216 2 -254 16 -275 16 -24 378 -240 436 -261 21 -7 38 -6 59 1 63 24 417 236
433 260 13 20 17 61 19 255 4 285 2 295 -83 346 -162 97 -363 208 -385 213
-14 3 -36 1 -49 -5z m268 -145 c138 -80 202 -122 210 -140 15 -35 15 -464 -1
-498 -15 -35 -400 -260 -443 -260 -43 0 -428 225 -443 260 -16 35 -16 464 0
499 8 17 65 56 187 127 232 135 242 140 269 133 12 -3 112 -57 221 -121z"/>
<path d="M249 792 l-94 -57 0 -185 0 -184 89 -62 c49 -34 95 -60 103 -57 10 4
13 29 13 99 l0 94 125 0 125 0 0 -95 c0 -92 1 -95 23 -94 12 0 58 26 102 58
l80 57 0 184 0 185 -94 57 c-51 31 -99 54 -107 51 -11 -4 -14 -27 -14 -94 l0
-89 -115 0 -115 0 0 89 c0 67 -3 90 -14 94 -8 3 -56 -20 -107 -51z m236 -157
l140 0 5 87 5 87 78 -45 77 -46 0 -168 0 -168 -75 -51 -75 -52 0 76 c0 118 3
115 -155 115 -158 0 -155 3 -155 -115 l0 -76 -75 52 -75 51 0 168 0 168 78 46
77 45 5 -87 5 -87 140 0z"/>
<path d="M1110 545 l0 -285 100 0 100 0 0 105 0 106 158 -3 157 -3 3 -102 3
-103 94 0 95 0 0 285 0 285 -95 0 -95 0 0 -95 0 -95 -160 0 -160 0 0 95 0 95
-100 0 -100 0 0 -285z m170 160 l0 -95 185 0 184 0 3 93 3 92 68 3 67 3 0
-256 0 -256 -67 3 -68 3 -3 103 -3 102 -184 0 -185 0 0 -105 0 -105 -70 0 -70
0 0 255 0 255 70 0 70 0 0 -95z"/>
<path d="M1910 545 l0 -286 98 3 97 3 3 283 2 282 -100 0 -100 0 0 -285z m168
3 l-3 -253 -67 -3 -68 -3 0 256 0 255 70 0 70 0 -2 -252z"/>
<path d="M2200 544 l0 -286 303 4 c329 5 348 8 400 64 37 40 50 116 45 259 -5
132 -17 169 -66 204 -49 35 -107 41 -399 41 l-283 0 0 -286z m648 233 c59 -32
74 -85 70 -246 -2 -113 -6 -141 -23 -168 -38 -64 -58 -68 -377 -71 l-288 -4 0
257 0 256 293 -3 c260 -3 296 -5 325 -21z"/>
<path d="M2370 551 l0 -151 164 0 c89 0 177 5 193 10 41 15 53 47 53 145 0 74
-3 87 -24 112 l-24 28 -181 3 -181 4 0 -151z m350 106 c23 -12 25 -18 28 -102
4 -126 6 -125 -199 -125 l-159 0 0 113 c0 63 3 117 7 120 12 13 297 7 323 -6z"/>
<path d="M3010 546 l0 -286 95 0 95 0 0 70 0 71 148 -3 147 -3 3 -67 3 -68 99
0 100 0 0 53 c-1 80 -16 139 -39 158 l-21 18 24 24 c42 42 48 176 11 246 -32
63 -49 66 -372 69 l-293 3 0 -285z m596 239 c44 -18 64 -63 64 -145 0 -74 -19
-114 -60 -128 -39 -14 -39 -38 0 -46 38 -7 60 -53 60 -126 l0 -50 -70 0 -70 0
0 50 c0 85 -11 90 -195 90 l-154 0 -3 -67 -3 -68 -67 -3 -68 -3 0 256 0 255
265 0 c211 0 273 -3 301 -15z"/>
<path d="M3180 621 l0 -81 164 0 c159 0 165 1 180 22 22 31 20 81 -3 109 -19
23 -25 24 -180 28 l-161 3 0 -81z m314 36 c12 -9 17 -23 14 -47 l-3 -35 -152
-3 -153 -3 0 44 c0 24 3 47 7 50 13 13 268 8 287 -6z"/>
<path d="M4007 788 c-51 -89 -277 -515 -277 -521 0 -4 47 -7 105 -7 l105 0 25
50 25 50 155 0 154 0 28 -50 28 -50 108 0 108 0 -40 73 c-22 39 -92 166 -155
282 l-114 210 -116 3 -115 3 -24 -43z m325 -151 c49 -89 111 -204 138 -255
l51 -92 -76 0 -75 0 -22 45 -22 45 -178 0 -178 0 -22 -45 -22 -45 -73 0 c-40
0 -73 3 -73 7 0 4 60 118 133 255 l132 248 100 0 100 0 87 -163z"/>
<path d="M4082 601 c-34 -65 -62 -121 -62 -125 0 -3 57 -6 126 -6 102 0 125 3
121 13 -3 8 -32 64 -64 125 l-59 111 -62 -118z m103 -21 c19 -38 35 -72 35
-75 0 -3 -34 -5 -75 -5 -41 0 -75 2 -75 5 0 10 70 145 75 145 3 0 21 -31 40
-70z"/>
<path d="M4590 545 l0 -285 280 0 280 0 0 85 0 85 -185 0 -185 0 0 200 0 200
-95 0 -95 0 0 -285z m160 55 l0 -200 185 0 185 0 0 -55 0 -55 -250 0 -250 0 0
255 0 255 65 0 65 0 0 -200z"/>
</g>
</svg>
