<svg width="265" height="96" fill="none" xmlns="http://www.w3.org/2000/svg"><g clip-path="url(#clip0)" fill="#00A532"><path d="M74.21 68.461a13.02 13.02 0 00-3.394-.345c-4.128 0-7.361 2.97-8.514 5.07v22.106H52.92V60.13h9.022v3.551c2.092-2.611 5.916-4.276 10.175-4.276 1.064.008 2.126.105 3.175.29l-1.08 8.766zm19.349-9.053c10.611 0 18.622 8.19 18.622 18.334C112.181 87.887 104.16 96 93.559 96c-10.601 0-18.62-8.113-18.62-18.261s8.001-18.33 18.62-18.33zm0 27.902c5.486 0 9.239-4.276 9.239-9.568 0-5.291-3.753-9.636-9.24-9.636-5.486 0-9.235 4.345-9.235 9.636 0 5.292 3.732 9.564 9.236 9.564m22.942 7.972V60.127h9.019v2.829a15.397 15.397 0 019.889-3.548 15.72 15.72 0 016.688 1.472 15.786 15.786 0 015.437 4.18c2.308 2.762 3.608 6.306 3.608 12.32v17.902h-9.384V76.65c0-3.478-.794-5.288-2.091-6.594-1.228-1.233-3.096-1.955-5.269-1.955-3.97 0-7.224 2.535-8.517 4.345v22.831h-9.38zm60.621 0V92.45c-1.225 1.595-4.692 3.55-9.023 3.55-7.144 0-12.627-5.143-12.627-11.743 0-7.682 6.711-12.172 14.361-12.172a16.34 16.34 0 016.927 1.52c0-4.712-3.463-6.218-7.144-6.218-3.391 0-7.223 1.593-9.311 2.898l-3.03-7.253c2.311-1.523 7.223-3.623 13.208-3.623 4.981 0 9.524 1.81 12.486 5.505 2.019 2.539 3.175 5.292 3.175 10.8v19.568l-9.022-.004zm-.362-14.507a9.29 9.29 0 00-4.691-1.084c-2.814 0-7.224.94-7.224 4.563 0 2.32 2.167 3.768 4.692 3.768 2.597 0 5.197-1.157 7.223-3.623V80.77zM24.232 48.01c14.34 0 24.233 10.735 24.233 24.002S38.572 96.01 24.232 96.01 0 85.268 0 72.002C0 58.735 9.892 48.01 24.232 48.01zm0 39.13c8.287 0 14.447-6.807 14.447-15.128 0-8.32-6.154-15.128-14.447-15.128S9.786 63.69 9.786 72.012c0 8.32 6.15 15.129 14.446 15.129zM211.47 69.874h2.82v-17.48a24.42 24.42 0 01-2.834-1.79l.014 19.27zm0-58.079a23.888 23.888 0 012.82-1.778V0h-2.82v11.795zm6.332 59.837h2.835V54.708a23.69 23.69 0 01-2.835-.781v17.705zm0-63.152a24.365 24.365 0 012.835-.781V0h-2.835v8.48zm-12.664 58.427h2.837V47.475a24.072 24.072 0 01-2.837-3.768v23.2zM192.476 55.51h2.834V6.877h-2.834v48.632zm31.645-.345V72.34h2.834V55.167c-.468.028-.942.041-1.417.041-.475 0-.949 0-1.417-.041v-.003zM198.812 62.4h2.838V0h-2.838v62.4zm-12.661-19.816h2.834V19.82h-2.834v22.765zm18.993-23.891a24.255 24.255 0 012.838-3.768V0h-2.838v18.693zm37.985-3.768a24.12 24.12 0 012.834 3.768V0h-2.834v14.925zm0 51.982h2.834v-23.2a24.126 24.126 0 01-2.834 3.768v19.432zM224.135 7.233c.468-.028.939-.042 1.417-.042.478 0 .949 0 1.417.042V0h-2.834v7.233zm31.645 48.293h2.837V6.873h-2.837v48.653zm6.332-12.942h2.838V19.815h-2.838v22.77zM249.451 62.4h2.834V0h-2.834v62.4zm-18.994 9.232h2.838V53.92c-.929.32-1.877.58-2.838.78v16.932zm6.339-61.615a23.625 23.625 0 012.838 1.785V0h-2.838v10.017zm-6.339-2.318c.961.202 1.908.463 2.838.78V0h-2.838v7.699zm6.332 62.172h2.838V50.604a24.173 24.173 0 01-2.838 1.79V69.87z"/></g><defs><clipPath id="clip0"><path fill="#fff" d="M0 0h264.96v96H0z"/></clipPath></defs></svg>