<?xml version="1.0" standalone="no"?>
<!DOCTYPE svg PUBLIC "-//W3C//DTD SVG 20010904//EN"
 "http://www.w3.org/TR/2001/REC-SVG-20010904/DTD/svg10.dtd">
<svg version="1.0" xmlns="http://www.w3.org/2000/svg"
 width="100.000000pt" height="33.000000pt" viewBox="0 0 100.000000 33.000000"
 preserveAspectRatio="xMidYMid meet">

<g transform="translate(0.000000,33.000000) scale(0.100000,-0.100000)"
fill="#000000" stroke="none">
<path d="M95 316 c-67 -29 -104 -105 -91 -184 22 -138 205 -178 283 -62 32 47
32 143 0 191 -41 62 -123 85 -192 55z m95 -76 c21 -11 35 -67 26 -104 -13 -53
-62 -72 -98 -39 -13 11 -18 30 -18 66 0 74 37 105 90 77z"/>
<path d="M794 320 c-33 -13 -64 -59 -64 -95 0 -42 26 -65 103 -90 49 -16 62
-24 62 -40 0 -30 -59 -34 -77 -6 -17 28 -98 31 -98 3 0 -28 30 -63 66 -78 94
-39 205 9 207 91 1 48 -27 75 -106 100 -40 13 -62 25 -62 35 0 21 53 26 61 6
4 -11 19 -16 50 -16 36 0 44 3 44 18 0 23 -34 60 -67 73 -30 11 -90 11 -119
-1z"/>
<path d="M310 280 l0 -40 45 0 45 0 0 -115 0 -115 50 0 50 0 0 115 0 115 40 0
40 0 0 40 0 40 -135 0 -135 0 0 -40z"/>
<path d="M600 165 l0 -155 50 0 50 0 0 155 0 155 -50 0 -50 0 0 -155z"/>
</g>
</svg>
