<?xml version="1.0" standalone="no"?>
<!DOCTYPE svg PUBLIC "-//W3C//DTD SVG 20010904//EN"
 "http://www.w3.org/TR/2001/REC-SVG-20010904/DTD/svg10.dtd">
<svg version="1.0" xmlns="http://www.w3.org/2000/svg"
 width="147.000000pt" height="128.000000pt" viewBox="0 0 147.000000 128.000000"
 preserveAspectRatio="xMidYMid meet">

<g transform="translate(0.000000,128.000000) scale(0.100000,-0.100000)"
fill="#000000" stroke="none">
<path d="M703 1263 c15 -2 39 -2 55 0 15 2 2 4 -28 4 -30 0 -43 -2 -27 -4z"/>
<path d="M822 1250 c157 -40 285 -172 333 -343 l15 -52 -5 45 c-20 156 -194
338 -340 355 l-40 5 37 -10z"/>
<path d="M565 978 l-40 -43 45 40 c25 22 47 41 49 43 2 1 0 2 -5 2 -6 0 -28
-19 -49 -42z"/>
<path d="M904 946 c34 -50 49 -110 42 -161 -3 -28 -2 -34 4 -20 22 51 -2 155
-47 196 l-25 24 26 -39z"/>
<path d="M720 828 c0 -7 -23 -47 -50 -88 -27 -41 -50 -78 -50 -82 0 -4 19 0
43 9 23 8 61 21 84 29 l43 13 62 -82 c91 -117 92 -119 56 -45 -18 37 -37 67
-43 68 -5 0 -32 39 -60 86 -47 81 -85 122 -85 92z"/>
<path d="M1171 814 c0 -11 3 -14 6 -6 3 7 2 16 -1 19 -3 4 -6 -2 -5 -13z"/>
<path d="M340 570 c25 -47 116 -127 180 -158 70 -34 148 -53 214 -51 31 1 24
4 -29 10 -137 18 -229 63 -317 157 -33 36 -55 55 -48 42z"/>
<path d="M798 373 c6 -2 18 -2 25 0 6 3 1 5 -13 5 -14 0 -19 -2 -12 -5z"/>
<path d="M350 145 l0 -115 25 0 c22 0 25 4 25 39 0 54 8 71 36 71 21 0 23 -5
26 -57 3 -55 4 -58 31 -61 27 -3 27 -3 27 60 0 95 -38 131 -101 98 -17 -10
-19 -7 -19 35 0 41 -2 45 -25 45 l-25 0 0 -115z"/>
<path d="M970 215 c0 -44 -1 -44 -24 -34 -38 18 -74 3 -93 -36 -14 -30 -15
-38 -2 -72 19 -49 58 -65 100 -41 16 10 29 13 29 8 0 -6 11 -10 25 -10 l25 0
0 115 0 115 -30 0 c-29 0 -30 -2 -30 -45z m-12 -77 c30 -30 -2 -93 -36 -71
-21 13 -27 50 -12 69 15 17 32 18 48 2z"/>
<path d="M1070 140 l0 -120 25 0 25 0 0 120 0 120 -25 0 -25 0 0 -120z"/>
<path d="M53 239 c-70 -21 -69 -89 3 -120 32 -14 44 -25 42 -37 -3 -13 -14
-17 -45 -15 -30 1 -43 -3 -47 -14 -8 -21 -5 -24 43 -30 77 -11 123 28 107 91
-4 17 -19 29 -51 42 -55 21 -53 38 3 42 34 3 42 7 42 23 0 10 -6 19 -12 19 -7
0 -22 2 -33 4 -11 3 -35 0 -52 -5z"/>
<path d="M550 235 c0 -10 10 -15 30 -15 20 0 30 5 30 15 0 10 -10 15 -30 15
-20 0 -30 -5 -30 -15z"/>
<path d="M210 161 c-36 -36 -38 -70 -7 -107 19 -21 33 -27 68 -28 38 -1 44 2
47 21 3 17 -1 20 -16 16 -30 -7 -62 14 -62 41 0 31 24 50 55 43 22 -4 26 -1
23 17 -2 16 -11 22 -41 24 -30 3 -43 -2 -67 -27z"/>
<path d="M557 183 c-4 -3 -7 -39 -7 -80 l0 -73 30 0 30 0 0 80 c0 77 -1 80
-23 80 -13 0 -27 -3 -30 -7z"/>
<path d="M650 110 c0 -79 0 -80 25 -80 22 0 25 4 25 39 0 54 8 71 36 71 21 0
23 -5 26 -57 3 -55 4 -58 31 -61 27 -3 27 -3 27 60 0 94 -38 131 -100 98 -13
-7 -21 -7 -25 0 -3 5 -15 10 -26 10 -17 0 -19 -7 -19 -80z"/>
<path d="M1175 165 c-25 -24 -32 -65 -19 -100 19 -48 144 -62 144 -16 0 12
-10 16 -42 16 -24 0 -43 5 -45 13 -3 9 11 12 51 12 60 0 62 1 45 49 -20 56
-91 70 -134 26z m95 -35 c0 -6 -16 -10 -35 -10 -40 0 -41 2 -19 24 12 12 20
13 35 6 10 -6 19 -15 19 -20z"/>
<path d="M1340 110 l0 -80 30 0 c29 0 30 1 30 51 0 47 2 51 30 60 19 7 30 18
30 30 0 24 -32 25 -54 3 -15 -14 -16 -14 -16 0 0 10 -9 16 -25 16 -25 0 -25
-1 -25 -80z"/>
</g>
</svg>
