<svg width="12" height="18" viewBox="0 0 12 18" fill="none" xmlns="http://www.w3.org/2000/svg">
<path d="M5.99996 0.666748C2.77496 0.666748 0.166626 3.27508 0.166626 6.50008C0.166626 7.95008 0.583293 9.30841 1.34163 10.5334C2.13329 11.8167 3.17496 12.9167 3.97496 14.2001C4.36663 14.8251 4.64996 15.4084 4.94996 16.0834C5.16663 16.5417 5.34163 17.3334 5.99996 17.3334C6.65829 17.3334 6.83329 16.5417 7.04163 16.0834C7.34996 15.4084 7.62496 14.8251 8.01663 14.2001C8.81663 12.9251 9.85829 11.8251 10.65 10.5334C11.4166 9.30841 11.8333 7.95008 11.8333 6.50008C11.8333 3.27508 9.22496 0.666748 5.99996 0.666748ZM5.99996 8.79175C4.84996 8.79175 3.91663 7.85841 3.91663 6.70841C3.91663 5.55841 4.84996 4.62508 5.99996 4.62508C7.14996 4.62508 8.08329 5.55841 8.08329 6.70841C8.08329 7.85841 7.14996 8.79175 5.99996 8.79175Z" fill="white"/>
</svg>
