<svg width="12" height="18" viewBox="0 0 12 18" fill="none" xmlns="http://www.w3.org/2000/svg">
<path d="M6.00002 0.666672C2.77502 0.666672 0.166687 3.27501 0.166687 6.5C0.166687 7.95001 0.583354 9.30834 1.34169 10.5333C2.13335 11.8167 3.17502 12.9167 3.97502 14.2C4.36669 14.825 4.65002 15.4083 4.95002 16.0833C5.16669 16.5417 5.34169 17.3333 6.00002 17.3333C6.65835 17.3333 6.83335 16.5417 7.04169 16.0833C7.35002 15.4083 7.62502 14.825 8.01669 14.2C8.81669 12.925 9.85835 11.825 10.65 10.5333C11.4167 9.30834 11.8334 7.95001 11.8334 6.5C11.8334 3.27501 9.22502 0.666672 6.00002 0.666672ZM6.00002 8.79167C4.85002 8.79167 3.91669 7.85834 3.91669 6.70834C3.91669 5.55834 4.85002 4.62501 6.00002 4.62501C7.15002 4.62501 8.08335 5.55834 8.08335 6.70834C8.08335 7.85834 7.15002 8.79167 6.00002 8.79167Z" fill="#1089FF"/>
</svg>
