<svg width="64" height="64" viewBox="0 0 64 64" fill="none" xmlns="http://www.w3.org/2000/svg">
<path d="M22.2192 15.0276C22.0353 15.5935 22.2163 16.2 22.6801 16.5729L26.8095 19.8919L25.4196 25.0042C25.2636 25.5782 25.4737 26.1752 25.9553 26.5255C26.4371 26.875 27.0695 26.8904 27.5673 26.5646L32 23.663L36.4327 26.5648C36.6717 26.7211 36.9416 26.7989 37.211 26.7989C37.503 26.7989 37.7943 26.7075 38.0445 26.5255C38.5263 26.1756 38.7366 25.5782 38.5802 25.0042L37.1903 19.892L41.3195 16.5731C41.7836 16.2004 41.9646 15.5938 41.7806 15.0276C41.5967 14.4614 41.0937 14.077 40.4993 14.0483L35.2077 13.7902L33.3272 8.8375C33.1161 8.28112 32.595 7.9215 31.9998 7.9215C31.4047 7.9215 30.8836 8.281 30.6726 8.83737L28.792 13.7904L23.5007 14.0483C22.9061 14.077 22.4031 14.4614 22.2192 15.0276ZM29.2687 15.7694C29.8327 15.7419 30.3266 15.383 30.5267 14.8553L31.9997 10.9759L33.4727 14.8556C33.6732 15.3833 34.1672 15.7419 34.7307 15.7694L38.8753 15.9715L35.6408 18.5711C35.2007 18.925 35.0122 19.5056 35.1603 20.0501L36.249 24.0544L32.777 21.7815C32.5408 21.627 32.2702 21.5497 31.9996 21.5497C31.729 21.5497 31.4581 21.6271 31.2218 21.7816L27.7501 24.0544L28.8387 20.0504C28.987 19.5055 28.7983 18.9247 28.3581 18.5711L25.1237 15.9716L29.2687 15.7694ZM30.9997 4.66975V1C30.9997 0.44775 31.4475 0 31.9997 0C32.552 0 32.9997 0.44775 32.9997 1V4.66975C32.9997 5.222 32.552 5.66975 31.9997 5.66975C31.4475 5.66975 30.9997 5.222 30.9997 4.66975ZM37.0896 10.5945C36.7201 10.1841 36.7532 9.55175 37.1636 9.18225L41.253 5.5C41.6635 5.13037 42.2957 5.1635 42.6653 5.574C43.0348 5.98438 43.0017 6.61675 42.5913 6.98625L38.5018 10.6685C38.3107 10.8406 38.0715 10.9254 37.833 10.9254C37.5596 10.9254 37.2871 10.8139 37.0896 10.5945ZM21.3341 5.574C21.7036 5.1635 22.3358 5.13037 22.7465 5.5L26.836 9.18225C27.2463 9.55175 27.2795 10.1841 26.91 10.5945C26.7125 10.8137 26.44 10.9254 26.1665 10.9254C25.9281 10.9254 25.6888 10.8406 25.4976 10.6685L21.4081 6.98625C20.9976 6.61675 20.9646 5.98438 21.3341 5.574ZM44.829 16.5729L48.9583 19.8919L47.5685 25.0042C47.4125 25.5782 47.6226 26.1752 48.1042 26.5255C48.5856 26.875 49.2181 26.8902 49.7162 26.5646L54.1488 23.663L58.5816 26.5648C58.8206 26.7211 59.0905 26.7989 59.3598 26.7989C59.6518 26.7989 59.9432 26.7075 60.1933 26.5255C60.675 26.1759 60.8852 25.5787 60.7291 25.0042L59.3392 19.892L63.4683 16.5731C63.9323 16.2005 64.1133 15.5939 63.9293 15.0276C63.7455 14.4614 63.2425 14.077 62.6482 14.0483L57.3566 13.7902L55.4762 8.8375C55.2651 8.28112 54.744 7.9215 54.1488 7.9215C53.5536 7.9215 53.0325 8.281 52.8213 8.83737L50.941 13.7902L45.6497 14.0481C45.055 14.0769 44.552 14.4614 44.3681 15.0276C44.1841 15.5938 44.3651 16.2004 44.829 16.5729ZM51.4175 15.7694C51.9816 15.7419 52.4756 15.383 52.6758 14.8551L54.1487 10.9757L55.6215 14.855C55.8218 15.383 56.3158 15.7419 56.8797 15.7692L61.0243 15.9714L57.7902 18.5707C57.3498 18.9245 57.1611 19.5052 57.3093 20.05L58.398 24.0543L54.926 21.7814C54.6897 21.6269 54.4191 21.5496 54.1485 21.5496C53.8777 21.5496 53.607 21.627 53.3708 21.7815L49.8991 24.0543L50.9877 20.0502C51.1358 19.5056 50.9473 18.925 50.5071 18.571L47.2727 15.9714L51.4175 15.7694ZM0.530969 16.5729L4.66034 19.8919L3.27047 25.0042C3.11447 25.5782 3.32459 26.1752 3.80622 26.5255C4.28797 26.875 4.92034 26.8904 5.41822 26.5646L9.85084 23.663L14.2836 26.5648C14.5226 26.7211 14.7925 26.7989 15.0618 26.7989C15.3538 26.7989 15.6452 26.7075 15.8953 26.5255C16.377 26.1759 16.5872 25.5787 16.4311 25.0042L15.0412 19.892L19.1703 16.5731C19.6341 16.2008 19.8152 15.5943 19.6313 15.027C19.4471 14.4611 18.9441 14.0769 18.3502 14.0481L13.0586 13.7901L11.1782 8.8375C10.9671 8.28112 10.446 7.9215 9.85084 7.9215C9.25559 7.9215 8.73447 8.281 8.52334 8.83737L6.64297 13.7902L1.35172 14.0481C0.757094 14.0769 0.254094 14.4614 0.0703441 15.027C-0.114031 15.5934 0.0668441 16.2002 0.530969 16.5729ZM7.11947 15.7694C7.68359 15.7419 8.17759 15.383 8.37784 14.8551L9.85072 10.9757L11.3235 14.855C11.5238 15.383 12.0178 15.7419 12.5817 15.7692L16.7263 15.9714L13.4922 18.5707C13.0518 18.9245 12.8631 19.5052 13.0113 20.05L14.1 24.0543L10.628 21.7814C10.3917 21.6269 10.1211 21.5496 9.85047 21.5496C9.57972 21.5496 9.30897 21.627 9.07284 21.7815L5.60109 24.0543L6.68972 20.0502C6.83784 19.5056 6.64934 18.925 6.20909 18.571L2.97472 15.9714L7.11947 15.7694ZM63.8423 53.1166C63.1387 50.8444 61.6976 48.8041 59.7842 47.3714C58.8682 46.6855 57.8707 46.1512 56.8185 45.773C58.2773 44.628 59.2173 42.8505 59.2173 40.8564C59.2173 37.4106 56.414 34.6074 52.9683 34.6074C49.5226 34.6074 46.7192 37.4106 46.7192 40.8564C46.7192 42.8481 47.657 44.6239 49.113 45.769C47.1616 46.4655 45.4328 47.6893 44.109 49.3382C43.4902 48.4726 42.7765 47.6686 41.9741 46.943C40.3573 45.4809 38.46 44.4071 36.4166 43.7725C38.5835 42.336 40.016 39.8764 40.016 37.0875C40.016 32.6675 36.4198 29.0715 31.9998 29.0715C27.5798 29.0715 23.9837 32.6675 23.9837 37.0875C23.9837 39.8764 25.4161 42.336 27.583 43.7725C25.5395 44.407 23.6421 45.4809 22.0253 46.943C21.223 47.6686 20.5092 48.4726 19.8906 49.3381C18.5668 47.689 16.8381 46.4652 14.8866 45.7686C16.3425 44.6235 17.2803 42.8477 17.2803 40.856C17.2803 37.4102 14.477 34.607 11.0313 34.607C7.58559 34.607 4.78222 37.4102 4.78222 40.856C4.78222 42.85 5.72222 44.6276 7.18097 45.7726C6.12872 46.1509 5.13122 46.6851 4.21509 47.371C2.30172 48.8036 0.860594 50.844 0.156969 53.1161C-0.168156 54.1656 0.0119691 55.2308 0.664094 56.1155C1.31609 57 2.28034 57.487 3.37909 57.487H17.2032V59.2918C17.2032 61.888 19.3153 64.0001 21.9116 64.0001H42.0878C44.684 64.0001 46.7962 61.888 46.7963 59.2918V57.4875H60.6203C61.7192 57.4875 62.6835 57.0004 63.3353 56.116C63.9873 55.2313 64.1675 54.166 63.8423 53.1166ZM52.9683 36.6074C55.3112 36.6074 57.2173 38.5135 57.2173 40.8564C57.2173 43.1994 55.3112 45.1055 52.9683 45.1055C50.6253 45.1055 48.7192 43.1994 48.7192 40.8564C48.7192 38.5135 50.6253 36.6074 52.9683 36.6074ZM25.9837 37.0875C25.9837 33.7703 28.6826 31.0715 31.9998 31.0715C35.3171 31.0715 38.016 33.7703 38.016 37.0875C38.016 40.4038 35.3188 43.1017 32.0031 43.1035C32.002 43.1035 32.0007 43.1035 31.9997 43.1035C31.9987 43.1035 31.9976 43.1035 31.9965 43.1035C28.6807 43.1016 25.9837 40.4036 25.9837 37.0875ZM11.0313 36.6069C13.3742 36.6069 15.2803 38.513 15.2803 40.8559C15.2803 43.1989 13.3742 45.105 11.0313 45.105C8.68834 45.105 6.78222 43.1989 6.78222 40.8559C6.78222 38.513 8.68834 36.6069 11.0313 36.6069ZM17.3331 55.4869H3.37922C2.91897 55.4869 2.54722 55.2991 2.27409 54.9286C2.00084 54.5581 1.93147 54.1474 2.06759 53.7077C3.29059 49.7584 6.89297 47.105 11.0313 47.105C14.1617 47.105 17.0133 48.6175 18.7672 51.1779C18.0738 52.5249 17.5882 53.9767 17.3331 55.4869ZM44.7963 59.2916C44.7962 60.785 43.5812 62 42.0878 62H21.9116C20.4182 62 19.2032 60.785 19.2032 59.2916V56.5412C19.9272 50.0177 25.4177 45.1051 31.9965 45.1035C31.9976 45.1035 31.9987 45.1036 31.9998 45.1036C32.001 45.1036 32.0021 45.1035 32.0031 45.1035C38.5817 45.1053 44.0721 50.0177 44.7963 56.5412V59.2916ZM61.7255 54.9292C61.4523 55.2996 61.0807 55.4874 60.6203 55.4874H46.6666C46.4113 53.9771 45.9257 52.5252 45.2325 51.1781C46.9865 48.6179 49.838 47.1055 52.9682 47.1055C57.1066 47.1055 60.709 49.759 61.932 53.7084C62.0681 54.1478 61.9986 54.5585 61.7255 54.9292Z" fill="white"/>
</svg>
