<svg width="69" height="68" viewBox="0 0 69 68" fill="none" xmlns="http://www.w3.org/2000/svg">
<g id="button">
<path id="Vector" d="M51.5 66.9375C52.6272 66.9375 53.7082 66.4897 54.5052 65.6927C55.3022 64.8957 55.75 63.8147 55.75 62.6875V5.3125C55.75 4.18533 55.3022 3.10433 54.5052 2.3073C53.7082 1.51027 52.6272 1.0625 51.5 1.0625H17.5C16.3728 1.0625 15.2918 1.51027 14.4948 2.3073C13.6978 3.10433 13.25 4.18533 13.25 5.3125V62.6875C13.25 63.8147 13.6978 64.8957 14.4948 65.6927C15.2918 66.4897 16.3728 66.9375 17.5 66.9375H51.5ZM15.375 62.6875V5.3125C15.375 4.74891 15.5989 4.20841 15.9974 3.8099C16.3959 3.41138 16.9364 3.1875 17.5 3.1875H51.5C52.0636 3.1875 52.6041 3.41138 53.0026 3.8099C53.4011 4.20841 53.625 4.74891 53.625 5.3125V62.6875C53.625 63.2511 53.4011 63.7916 53.0026 64.1901C52.6041 64.5886 52.0636 64.8125 51.5 64.8125H17.5C16.9364 64.8125 16.3959 64.5886 15.9974 64.1901C15.5989 63.7916 15.375 63.2511 15.375 62.6875Z" fill="white"/>
<path id="Vector_2" d="M18.5625 62.6875H50.4375C50.7193 62.6875 50.9895 62.5756 51.1888 62.3763C51.3881 62.177 51.5 61.9068 51.5 61.625V6.375C51.5 6.09321 51.3881 5.82296 51.1888 5.6237C50.9895 5.42444 50.7193 5.3125 50.4375 5.3125H18.5625C18.2807 5.3125 18.0105 5.42444 17.8112 5.6237C17.6119 5.82296 17.5 6.09321 17.5 6.375V61.625C17.5 61.9068 17.6119 62.177 17.8112 62.3763C18.0105 62.5756 18.2807 62.6875 18.5625 62.6875ZM19.625 7.4375H49.375V60.5625H19.625V7.4375Z" fill="white"/>
<path id="Vector_3" d="M45.125 9.5625H47.25V11.6875H45.125V9.5625Z" fill="white"/>
<path id="Vector_4" d="M45.125 56.3125H47.25V58.4375H45.125V56.3125Z" fill="white"/>
<path id="Vector_5" d="M21.75 9.5625H23.875V11.6875H21.75V9.5625Z" fill="white"/>
<path id="Vector_6" d="M21.75 56.3125H23.875V58.4375H21.75V56.3125Z" fill="white"/>
<path id="Vector_7" d="M22.8125 17C22.8125 17.6304 22.9994 18.2467 23.3497 18.7709C23.6999 19.2951 24.1978 19.7036 24.7802 19.9449C25.3626 20.1861 26.0035 20.2492 26.6219 20.1263C27.2402 20.0033 27.8081 19.6997 28.2539 19.2539C28.6997 18.8081 29.0033 18.2402 29.1263 17.6219C29.2492 17.0035 29.1861 16.3626 28.9449 15.7802C28.7036 15.1978 28.2951 14.6999 27.7709 14.3497C27.2467 13.9994 26.6304 13.8125 26 13.8125C25.1546 13.8125 24.3439 14.1483 23.7461 14.7461C23.1483 15.3439 22.8125 16.1546 22.8125 17ZM26 15.9375C26.2101 15.9375 26.4156 15.9998 26.5903 16.1166C26.765 16.2333 26.9012 16.3993 26.9816 16.5934C27.062 16.7875 27.0831 17.0012 27.0421 17.2073C27.0011 17.4134 26.8999 17.6027 26.7513 17.7513C26.6027 17.8999 26.4134 18.0011 26.2073 18.0421C26.0012 18.0831 25.7875 18.062 25.5934 17.9816C25.3993 17.9012 25.2333 17.765 25.1166 17.5903C24.9998 17.4156 24.9375 17.2101 24.9375 17C24.9375 16.7182 25.0494 16.448 25.2487 16.2487C25.448 16.0494 25.7182 15.9375 26 15.9375Z" fill="white"/>
<path id="Vector_8" d="M34.5 20.1875C35.1304 20.1875 35.7467 20.0006 36.2709 19.6503C36.7951 19.3001 37.2036 18.8022 37.4449 18.2198C37.6861 17.6374 37.7492 16.9965 37.6263 16.3782C37.5033 15.7598 37.1997 15.1919 36.7539 14.7461C36.3081 14.3003 35.7402 13.9967 35.1218 13.8737C34.5035 13.7508 33.8626 13.8139 33.2802 14.0551C32.6978 14.2964 32.1999 14.7049 31.8497 15.2291C31.4994 15.7533 31.3125 16.3696 31.3125 17C31.3125 17.8454 31.6483 18.6561 32.2461 19.2539C32.8439 19.8517 33.6546 20.1875 34.5 20.1875ZM34.5 15.9375C34.7101 15.9375 34.9156 15.9998 35.0903 16.1166C35.265 16.2333 35.4012 16.3993 35.4816 16.5934C35.562 16.7875 35.5831 17.0012 35.5421 17.2073C35.5011 17.4134 35.3999 17.6027 35.2513 17.7513C35.1027 17.8999 34.9134 18.0011 34.7073 18.0421C34.5012 18.0831 34.2875 18.062 34.0934 17.9816C33.8993 17.9012 33.7333 17.765 33.6166 17.5903C33.4998 17.4156 33.4375 17.2101 33.4375 17C33.4375 16.7182 33.5494 16.448 33.7487 16.2487C33.948 16.0494 34.2182 15.9375 34.5 15.9375Z" fill="white"/>
<path id="Vector_9" d="M43 20.1875C43.6304 20.1875 44.2467 20.0006 44.7709 19.6503C45.2951 19.3001 45.7036 18.8022 45.9449 18.2198C46.1861 17.6374 46.2492 16.9965 46.1263 16.3782C46.0033 15.7598 45.6997 15.1919 45.2539 14.7461C44.8081 14.3003 44.2402 13.9967 43.6218 13.8737C43.0035 13.7508 42.3626 13.8139 41.7802 14.0551C41.1978 14.2964 40.6999 14.7049 40.3497 15.2291C39.9994 15.7533 39.8125 16.3696 39.8125 17C39.8125 17.8454 40.1483 18.6561 40.7461 19.2539C41.3439 19.8517 42.1546 20.1875 43 20.1875ZM43 15.9375C43.2101 15.9375 43.4156 15.9998 43.5903 16.1166C43.765 16.2333 43.9012 16.3993 43.9816 16.5934C44.062 16.7875 44.0831 17.0012 44.0421 17.2073C44.0011 17.4134 43.8999 17.6027 43.7513 17.7513C43.6027 17.8999 43.4134 18.0011 43.2073 18.0421C43.0012 18.0831 42.7875 18.062 42.5934 17.9816C42.3993 17.9012 42.2333 17.765 42.1166 17.5903C41.9998 17.4156 41.9375 17.2101 41.9375 17C41.9375 16.7182 42.0494 16.448 42.2487 16.2487C42.448 16.0494 42.7182 15.9375 43 15.9375Z" fill="white"/>
<path id="Vector_10" d="M26 22.3125C25.3696 22.3125 24.7533 22.4994 24.2291 22.8497C23.7049 23.1999 23.2964 23.6978 23.0551 24.2802C22.8139 24.8626 22.7508 25.5035 22.8737 26.1219C22.9967 26.7402 23.3003 27.3081 23.7461 27.7539C24.1919 28.1997 24.7598 28.5033 25.3782 28.6263C25.9965 28.7492 26.6374 28.6861 27.2198 28.4449C27.8022 28.2036 28.3001 27.7951 28.6503 27.2709C29.0006 26.7467 29.1875 26.1304 29.1875 25.5C29.1875 24.6546 28.8517 23.8439 28.2539 23.2461C27.6561 22.6483 26.8454 22.3125 26 22.3125ZM26 26.5625C25.7899 26.5625 25.5844 26.5002 25.4097 26.3834C25.235 26.2667 25.0988 26.1007 25.0184 25.9066C24.938 25.7125 24.9169 25.4988 24.9579 25.2927C24.9989 25.0866 25.1001 24.8973 25.2487 24.7487C25.3973 24.6001 25.5866 24.4989 25.7927 24.4579C25.9988 24.4169 26.2125 24.438 26.4066 24.5184C26.6007 24.5988 26.7667 24.735 26.8834 24.9097C27.0002 25.0844 27.0625 25.2899 27.0625 25.5C27.0625 25.7818 26.9506 26.052 26.7513 26.2513C26.552 26.4506 26.2818 26.5625 26 26.5625Z" fill="white"/>
<path id="Vector_11" d="M34.5 28.6875C35.1304 28.6875 35.7467 28.5006 36.2709 28.1503C36.7951 27.8001 37.2036 27.3022 37.4449 26.7198C37.6861 26.1374 37.7492 25.4965 37.6263 24.8782C37.5033 24.2598 37.1997 23.6919 36.7539 23.2461C36.3081 22.8003 35.7402 22.4967 35.1218 22.3737C34.5035 22.2508 33.8626 22.3139 33.2802 22.5551C32.6978 22.7964 32.1999 23.2049 31.8497 23.7291C31.4994 24.2533 31.3125 24.8696 31.3125 25.5C31.3125 26.3454 31.6483 27.1561 32.2461 27.7539C32.8439 28.3517 33.6546 28.6875 34.5 28.6875ZM34.5 24.4375C34.7101 24.4375 34.9156 24.4998 35.0903 24.6166C35.265 24.7333 35.4012 24.8993 35.4816 25.0934C35.562 25.2875 35.5831 25.5012 35.5421 25.7073C35.5011 25.9134 35.3999 26.1027 35.2513 26.2513C35.1027 26.3999 34.9134 26.5011 34.7073 26.5421C34.5012 26.5831 34.2875 26.562 34.0934 26.4816C33.8993 26.4012 33.7333 26.265 33.6166 26.0903C33.4998 25.9156 33.4375 25.7101 33.4375 25.5C33.4375 25.2182 33.5494 24.948 33.7487 24.7487C33.948 24.5494 34.2182 24.4375 34.5 24.4375Z" fill="white"/>
<path id="Vector_12" d="M43 28.6875C43.6304 28.6875 44.2467 28.5006 44.7709 28.1503C45.2951 27.8001 45.7036 27.3022 45.9449 26.7198C46.1861 26.1374 46.2492 25.4965 46.1263 24.8782C46.0033 24.2598 45.6997 23.6919 45.2539 23.2461C44.8081 22.8003 44.2402 22.4967 43.6218 22.3737C43.0035 22.2508 42.3626 22.3139 41.7802 22.5551C41.1978 22.7964 40.6999 23.2049 40.3497 23.7291C39.9994 24.2533 39.8125 24.8696 39.8125 25.5C39.8125 26.3454 40.1483 27.1561 40.7461 27.7539C41.3439 28.3517 42.1546 28.6875 43 28.6875ZM43 24.4375C43.2101 24.4375 43.4156 24.4998 43.5903 24.6166C43.765 24.7333 43.9012 24.8993 43.9816 25.0934C44.062 25.2875 44.0831 25.5012 44.0421 25.7073C44.0011 25.9134 43.8999 26.1027 43.7513 26.2513C43.6027 26.3999 43.4134 26.5011 43.2073 26.5421C43.0012 26.5831 42.7875 26.562 42.5934 26.4816C42.3993 26.4012 42.2333 26.265 42.1166 26.0903C41.9998 25.9156 41.9375 25.7101 41.9375 25.5C41.9375 25.2182 42.0494 24.948 42.2487 24.7487C42.448 24.5494 42.7182 24.4375 43 24.4375Z" fill="white"/>
<path id="Vector_13" d="M26 30.8125C25.3696 30.8125 24.7533 30.9994 24.2291 31.3497C23.7049 31.6999 23.2964 32.1978 23.0551 32.7802C22.8139 33.3626 22.7508 34.0035 22.8737 34.6218C22.9967 35.2402 23.3003 35.8081 23.7461 36.2539C24.1919 36.6997 24.7598 37.0033 25.3782 37.1263C25.9965 37.2492 26.6374 37.1861 27.2198 36.9449C27.8022 36.7036 28.3001 36.2951 28.6503 35.7709C29.0006 35.2467 29.1875 34.6304 29.1875 34C29.1875 33.1546 28.8517 32.3439 28.2539 31.7461C27.6561 31.1483 26.8454 30.8125 26 30.8125ZM26 35.0625C25.7899 35.0625 25.5844 35.0002 25.4097 34.8834C25.235 34.7667 25.0988 34.6007 25.0184 34.4066C24.938 34.2125 24.9169 33.9988 24.9579 33.7927C24.9989 33.5866 25.1001 33.3973 25.2487 33.2487C25.3973 33.1001 25.5866 32.9989 25.7927 32.9579C25.9988 32.9169 26.2125 32.938 26.4066 33.0184C26.6007 33.0988 26.7667 33.235 26.8834 33.4097C27.0002 33.5844 27.0625 33.7899 27.0625 34C27.0625 34.2818 26.9506 34.552 26.7513 34.7513C26.552 34.9506 26.2818 35.0625 26 35.0625Z" fill="white"/>
<path id="Vector_14" d="M34.5 37.1875C35.1304 37.1875 35.7467 37.0006 36.2709 36.6503C36.7951 36.3001 37.2036 35.8022 37.4449 35.2198C37.6861 34.6374 37.7492 33.9965 37.6263 33.3782C37.5033 32.7598 37.1997 32.1919 36.7539 31.7461C36.3081 31.3003 35.7402 30.9967 35.1218 30.8737C34.5035 30.7508 33.8626 30.8139 33.2802 31.0551C32.6978 31.2964 32.1999 31.7049 31.8497 32.2291C31.4994 32.7533 31.3125 33.3696 31.3125 34C31.3125 34.8454 31.6483 35.6561 32.2461 36.2539C32.8439 36.8517 33.6546 37.1875 34.5 37.1875ZM34.5 32.9375C34.7101 32.9375 34.9156 32.9998 35.0903 33.1166C35.265 33.2333 35.4012 33.3993 35.4816 33.5934C35.562 33.7875 35.5831 34.0012 35.5421 34.2073C35.5011 34.4134 35.3999 34.6027 35.2513 34.7513C35.1027 34.8999 34.9134 35.0011 34.7073 35.0421C34.5012 35.0831 34.2875 35.062 34.0934 34.9816C33.8993 34.9012 33.7333 34.765 33.6166 34.5903C33.4998 34.4156 33.4375 34.2101 33.4375 34C33.4375 33.7182 33.5494 33.448 33.7487 33.2487C33.948 33.0494 34.2182 32.9375 34.5 32.9375Z" fill="white"/>
<path id="Vector_15" d="M43 37.1875C43.6304 37.1875 44.2467 37.0006 44.7709 36.6503C45.2951 36.3001 45.7036 35.8022 45.9449 35.2198C46.1861 34.6374 46.2492 33.9965 46.1263 33.3782C46.0033 32.7598 45.6997 32.1919 45.2539 31.7461C44.8081 31.3003 44.2402 30.9967 43.6218 30.8737C43.0035 30.7508 42.3626 30.8139 41.7802 31.0551C41.1978 31.2964 40.6999 31.7049 40.3497 32.2291C39.9994 32.7533 39.8125 33.3696 39.8125 34C39.8125 34.8454 40.1483 35.6561 40.7461 36.2539C41.3439 36.8517 42.1546 37.1875 43 37.1875ZM43 32.9375C43.2101 32.9375 43.4156 32.9998 43.5903 33.1166C43.765 33.2333 43.9012 33.3993 43.9816 33.5934C44.062 33.7875 44.0831 34.0012 44.0421 34.2073C44.0011 34.4134 43.8999 34.6027 43.7513 34.7513C43.6027 34.8999 43.4134 35.0011 43.2073 35.0421C43.0012 35.0831 42.7875 35.062 42.5934 34.9816C42.3993 34.9012 42.2333 34.765 42.1166 34.5903C41.9998 34.4156 41.9375 34.2101 41.9375 34C41.9375 33.7182 42.0494 33.448 42.2487 33.2487C42.448 33.0494 42.7182 32.9375 43 32.9375Z" fill="white"/>
<path id="Vector_16" d="M29.1875 42.5C29.1875 41.8696 29.0006 41.2533 28.6503 40.7291C28.3001 40.2049 27.8022 39.7964 27.2198 39.5551C26.6374 39.3139 25.9965 39.2508 25.3782 39.3737C24.7598 39.4967 24.1919 39.8003 23.7461 40.2461C23.3003 40.6919 22.9967 41.2598 22.8737 41.8782C22.7508 42.4965 22.8139 43.1374 23.0551 43.7198C23.2964 44.3022 23.7049 44.8001 24.2291 45.1503C24.7533 45.5006 25.3696 45.6875 26 45.6875C26.8454 45.6875 27.6561 45.3517 28.2539 44.7539C28.8517 44.1561 29.1875 43.3454 29.1875 42.5ZM26 43.5625C25.7899 43.5625 25.5844 43.5002 25.4097 43.3834C25.235 43.2667 25.0988 43.1007 25.0184 42.9066C24.938 42.7125 24.9169 42.4988 24.9579 42.2927C24.9989 42.0866 25.1001 41.8973 25.2487 41.7487C25.3973 41.6001 25.5866 41.4989 25.7927 41.4579C25.9988 41.4169 26.2125 41.438 26.4066 41.5184C26.6007 41.5988 26.7667 41.735 26.8834 41.9097C27.0002 42.0844 27.0625 42.2899 27.0625 42.5C27.0625 42.7818 26.9506 43.052 26.7513 43.2513C26.552 43.4506 26.2818 43.5625 26 43.5625Z" fill="white"/>
<path id="Vector_17" d="M37.6875 42.5C37.6875 41.8696 37.5006 41.2533 37.1503 40.7291C36.8001 40.2049 36.3022 39.7964 35.7198 39.5551C35.1374 39.3139 34.4965 39.2508 33.8782 39.3737C33.2598 39.4967 32.6919 39.8003 32.2461 40.2461C31.8003 40.6919 31.4967 41.2598 31.3737 41.8782C31.2508 42.4965 31.3139 43.1374 31.5551 43.7198C31.7964 44.3022 32.2049 44.8001 32.7291 45.1503C33.2533 45.5006 33.8696 45.6875 34.5 45.6875C35.3454 45.6875 36.1561 45.3517 36.7539 44.7539C37.3517 44.1561 37.6875 43.3454 37.6875 42.5ZM34.5 43.5625C34.2899 43.5625 34.0844 43.5002 33.9097 43.3834C33.735 43.2667 33.5988 43.1007 33.5184 42.9066C33.438 42.7125 33.4169 42.4988 33.4579 42.2927C33.4989 42.0866 33.6001 41.8973 33.7487 41.7487C33.8973 41.6001 34.0866 41.4989 34.2927 41.4579C34.4988 41.4169 34.7125 41.438 34.9066 41.5184C35.1007 41.5988 35.2667 41.735 35.3834 41.9097C35.5002 42.0844 35.5625 42.2899 35.5625 42.5C35.5625 42.7818 35.4506 43.052 35.2513 43.2513C35.052 43.4506 34.7818 43.5625 34.5 43.5625Z" fill="white"/>
<path id="Vector_18" d="M30.25 47.8125C29.6196 47.8125 29.0033 47.9994 28.4791 48.3497C27.9549 48.6999 27.5464 49.1978 27.3051 49.7802C27.0639 50.3626 27.0008 51.0035 27.1237 51.6218C27.2467 52.2402 27.5503 52.8081 27.9961 53.2539C28.4419 53.6997 29.0098 54.0033 29.6282 54.1263C30.2465 54.2492 30.8874 54.1861 31.4698 53.9449C32.0522 53.7036 32.5501 53.2951 32.9003 52.7709C33.2506 52.2467 33.4375 51.6304 33.4375 51C33.4375 50.1546 33.1017 49.3439 32.5039 48.7461C31.9061 48.1483 31.0954 47.8125 30.25 47.8125ZM30.25 52.0625C30.0399 52.0625 29.8344 52.0002 29.6597 51.8834C29.485 51.7667 29.3488 51.6007 29.2684 51.4066C29.188 51.2125 29.1669 50.9988 29.2079 50.7927C29.2489 50.5866 29.3501 50.3973 29.4987 50.2487C29.6473 50.1001 29.8366 49.9989 30.0427 49.9579C30.2488 49.9169 30.4625 49.938 30.6566 50.0184C30.8507 50.0988 31.0167 50.235 31.1334 50.4097C31.2502 50.5844 31.3125 50.7899 31.3125 51C31.3125 51.2818 31.2006 51.552 31.0013 51.7513C30.802 51.9506 30.5318 52.0625 30.25 52.0625Z" fill="white"/>
<path id="Vector_19" d="M38.75 47.8125C38.1196 47.8125 37.5033 47.9994 36.9791 48.3497C36.4549 48.6999 36.0464 49.1978 35.8051 49.7802C35.5639 50.3626 35.5008 51.0035 35.6237 51.6218C35.7467 52.2402 36.0503 52.8081 36.4961 53.2539C36.9419 53.6997 37.5098 54.0033 38.1282 54.1263C38.7465 54.2492 39.3874 54.1861 39.9698 53.9449C40.5522 53.7036 41.0501 53.2951 41.4003 52.7709C41.7506 52.2467 41.9375 51.6304 41.9375 51C41.9375 50.1546 41.6017 49.3439 41.0039 48.7461C40.4061 48.1483 39.5954 47.8125 38.75 47.8125ZM38.75 52.0625C38.5399 52.0625 38.3344 52.0002 38.1597 51.8834C37.985 51.7667 37.8488 51.6007 37.7684 51.4066C37.688 51.2125 37.6669 50.9988 37.7079 50.7927C37.7489 50.5866 37.8501 50.3973 37.9987 50.2487C38.1473 50.1001 38.3366 49.9989 38.5427 49.9579C38.7488 49.9169 38.9625 49.938 39.1566 50.0184C39.3507 50.0988 39.5167 50.235 39.6334 50.4097C39.7502 50.5844 39.8125 50.7899 39.8125 51C39.8125 51.2818 39.7006 51.552 39.5013 51.7513C39.302 51.9506 39.0318 52.0625 38.75 52.0625Z" fill="white"/>
<path id="Vector_20" d="M46.1875 42.5C46.1875 41.8696 46.0006 41.2533 45.6503 40.7291C45.3001 40.2049 44.8022 39.7964 44.2198 39.5551C43.6374 39.3139 42.9965 39.2508 42.3782 39.3737C41.7598 39.4967 41.1919 39.8003 40.7461 40.2461C40.3003 40.6919 39.9967 41.2598 39.8737 41.8782C39.7508 42.4965 39.8139 43.1374 40.0551 43.7198C40.2964 44.3022 40.7049 44.8001 41.2291 45.1503C41.7533 45.5006 42.3696 45.6875 43 45.6875C43.8454 45.6875 44.6561 45.3517 45.2539 44.7539C45.8517 44.1561 46.1875 43.3454 46.1875 42.5ZM43 43.5625C42.7899 43.5625 42.5844 43.5002 42.4097 43.3834C42.235 43.2667 42.0988 43.1007 42.0184 42.9066C41.938 42.7125 41.9169 42.4988 41.9579 42.2927C41.9989 42.0866 42.1001 41.8973 42.2487 41.7487C42.3973 41.6001 42.5866 41.4989 42.7927 41.4579C42.9988 41.4169 43.2125 41.438 43.4066 41.5184C43.6007 41.5988 43.7667 41.735 43.8834 41.9097C44.0002 42.0844 44.0625 42.2899 44.0625 42.5C44.0625 42.7818 43.9506 43.052 43.7513 43.2513C43.552 43.4506 43.2818 43.5625 43 43.5625Z" fill="white"/>
</g>
</svg>
