<svg width="35" height="58" viewBox="0 0 35 58" fill="none" xmlns="http://www.w3.org/2000/svg">
<path d="M1.5625 57.6875H33.4375C33.7193 57.6875 33.9895 57.5756 34.1888 57.3763C34.3881 57.177 34.5 56.9068 34.5 56.625V1.375C34.5 1.09321 34.3881 0.822957 34.1888 0.623699C33.9895 0.424442 33.7193 0.3125 33.4375 0.3125H1.5625C1.28071 0.3125 1.01046 0.424442 0.811198 0.623699C0.611941 0.822957 0.5 1.09321 0.5 1.375V56.625C0.5 56.9068 0.611941 57.177 0.811198 57.3763C1.01046 57.5756 1.28071 57.6875 1.5625 57.6875ZM2.625 2.4375H32.375V55.5625H2.625V2.4375Z" fill="white"/>
</svg>
