<svg width="62" height="56" viewBox="0 0 62 56" fill="none" xmlns="http://www.w3.org/2000/svg">
<path d="M61.75 2.16665C61.75 2.65288 61.5612 3.11919 61.2252 3.46301C60.8892 3.80683 60.4335 3.99998 59.9583 3.99998H2.625C2.14982 3.99998 1.6941 3.80683 1.3581 3.46301C1.02209 3.11919 0.833328 2.65288 0.833328 2.16665C0.833328 1.68042 1.02209 1.2141 1.3581 0.870284C1.6941 0.526468 2.14982 0.333313 2.625 0.333313H59.9583C60.4335 0.333313 60.8892 0.526468 61.2252 0.870284C61.5612 1.2141 61.75 1.68042 61.75 2.16665ZM59.9583 51.6666H2.625C2.14982 51.6666 1.6941 51.8598 1.3581 52.2036C1.02209 52.5474 0.833328 53.0138 0.833328 53.5C0.833328 53.9862 1.02209 54.4525 1.3581 54.7963C1.6941 55.1402 2.14982 55.3333 2.625 55.3333H59.9583C60.4335 55.3333 60.8892 55.1402 61.2252 54.7963C61.5612 54.4525 61.75 53.9862 61.75 53.5C61.75 53.0138 61.5612 52.5474 61.2252 52.2036C60.8892 51.8598 60.4335 51.6666 59.9583 51.6666ZM25.3935 37.5353C25.0571 37.1911 24.6008 36.9977 24.125 36.9977C23.6492 36.9977 23.1929 37.1911 22.8565 37.5353C22.5201 37.8796 22.3311 38.3465 22.3311 38.8333C22.3311 39.3202 22.5201 39.7871 22.8565 40.1313L30.0232 47.4646C30.1896 47.6354 30.3873 47.7708 30.605 47.8633C30.8227 47.9557 31.056 48.0033 31.2917 48.0033C31.5273 48.0033 31.7607 47.9557 31.9784 47.8633C32.196 47.7708 32.3937 47.6354 32.5602 47.4646L39.7268 40.1313C40.0633 39.7871 40.2523 39.3202 40.2523 38.8333C40.2523 38.3465 40.0633 37.8796 39.7268 37.5353C39.3904 37.1911 38.9341 36.9977 38.4583 36.9977C37.9826 36.9977 37.5263 37.1911 37.1898 37.5353L33.0833 41.741V13.9256L37.1898 18.1313C37.5263 18.4756 37.9826 18.669 38.4583 18.669C38.9341 18.669 39.3904 18.4756 39.7268 18.1313C40.0633 17.7871 40.2523 17.3202 40.2523 16.8333C40.2523 16.3465 40.0633 15.8796 39.7268 15.5353L32.5602 8.20198C32.3937 8.03125 32.196 7.89579 31.9784 7.80337C31.7607 7.71094 31.5273 7.66337 31.2917 7.66337C31.056 7.66337 30.8227 7.71094 30.605 7.80337C30.3873 7.89579 30.1896 8.03125 30.0232 8.20198L22.8565 15.5353C22.5201 15.8796 22.3311 16.3465 22.3311 16.8333C22.3311 17.3202 22.5201 17.7871 22.8565 18.1313C23.1929 18.4756 23.6492 18.669 24.125 18.669C24.6008 18.669 25.0571 18.4756 25.3935 18.1313L29.5 13.9256V41.741L25.3935 37.5353Z" fill="white"/>
</svg>
